<mxfile host="app.diagrams.net" modified="2022-07-21T20:12:55.112Z" agent="5.0 (Macintosh; Intel Mac OS X 10_15_7) AppleWebKit/537.36 (KHTML, like Gecko) Chrome/103.0.0.0 Safari/537.36" etag="jyIoBAN6YcdJZPzZFOGE" version="20.1.4" type="github">
  <diagram id="iYe277I0wbZXPeClQHOc" name="Page-1">
    <mxGraphModel dx="2087" dy="1873" grid="1" gridSize="10" guides="1" tooltips="1" connect="1" arrows="1" fold="1" page="1" pageScale="1" pageWidth="827" pageHeight="1169" math="0" shadow="0">
      <root>
        <mxCell id="0" />
        <mxCell id="1" parent="0" />
        <mxCell id="3eNUb-Y0Jhc4Qr3QsMdJ-3" value="AWS Account" style="points=[[0,0],[0.25,0],[0.5,0],[0.75,0],[1,0],[1,0.25],[1,0.5],[1,0.75],[1,1],[0.75,1],[0.5,1],[0.25,1],[0,1],[0,0.75],[0,0.5],[0,0.25]];outlineConnect=0;gradientColor=none;html=1;whiteSpace=wrap;fontSize=12;fontStyle=0;container=1;pointerEvents=0;collapsible=0;recursiveResize=0;shape=mxgraph.aws4.group;grIcon=mxgraph.aws4.group_account;strokeColor=#CD2264;fillColor=none;verticalAlign=top;align=left;spacingLeft=30;fontColor=#CD2264;dashed=0;" vertex="1" parent="1">
          <mxGeometry x="90" y="-10" width="700" height="640" as="geometry" />
        </mxCell>
        <mxCell id="3eNUb-Y0Jhc4Qr3QsMdJ-25" value="" style="sketch=0;points=[[0,0,0],[0.25,0,0],[0.5,0,0],[0.75,0,0],[1,0,0],[0,1,0],[0.25,1,0],[0.5,1,0],[0.75,1,0],[1,1,0],[0,0.25,0],[0,0.5,0],[0,0.75,0],[1,0.25,0],[1,0.5,0],[1,0.75,0]];outlineConnect=0;fontColor=#232F3E;gradientColor=#F54749;gradientDirection=north;fillColor=#C7131F;strokeColor=#ffffff;dashed=0;verticalLabelPosition=bottom;verticalAlign=top;align=center;html=1;fontSize=12;fontStyle=0;aspect=fixed;shape=mxgraph.aws4.resourceIcon;resIcon=mxgraph.aws4.waf;" vertex="1" parent="3eNUb-Y0Jhc4Qr3QsMdJ-3">
          <mxGeometry x="412" y="20" width="38" height="38" as="geometry" />
        </mxCell>
        <mxCell id="3eNUb-Y0Jhc4Qr3QsMdJ-29" value="" style="sketch=0;outlineConnect=0;fontColor=#232F3E;gradientColor=none;fillColor=#3F8624;strokeColor=none;dashed=0;verticalLabelPosition=bottom;verticalAlign=top;align=center;html=1;fontSize=12;fontStyle=0;aspect=fixed;pointerEvents=1;shape=mxgraph.aws4.backup_aws_backup_support_for_amazon_s3;" vertex="1" parent="3eNUb-Y0Jhc4Qr3QsMdJ-3">
          <mxGeometry x="100" y="130" width="78" height="78" as="geometry" />
        </mxCell>
        <mxCell id="3eNUb-Y0Jhc4Qr3QsMdJ-34" value="HSM OR KMS for data encryption" style="shape=note;whiteSpace=wrap;html=1;backgroundOutline=1;fontColor=#000000;darkOpacity=0.05;fillColor=#FFF9B2;strokeColor=none;fillStyle=solid;direction=west;gradientDirection=north;gradientColor=#FFF2A1;shadow=1;size=20;pointerEvents=1;fontSize=16;" vertex="1" parent="3eNUb-Y0Jhc4Qr3QsMdJ-3">
          <mxGeometry x="10" y="290" width="110" height="60" as="geometry" />
        </mxCell>
        <mxCell id="3eNUb-Y0Jhc4Qr3QsMdJ-35" value="" style="endArrow=classic;html=1;rounded=0;fontSize=16;fontColor=#FFFFFF;" edge="1" parent="3eNUb-Y0Jhc4Qr3QsMdJ-3" source="3eNUb-Y0Jhc4Qr3QsMdJ-34" target="3eNUb-Y0Jhc4Qr3QsMdJ-29">
          <mxGeometry width="50" height="50" relative="1" as="geometry">
            <mxPoint x="320" y="360" as="sourcePoint" />
            <mxPoint x="370" y="310" as="targetPoint" />
            <Array as="points">
              <mxPoint x="65" y="200" />
            </Array>
          </mxGeometry>
        </mxCell>
        <mxCell id="3eNUb-Y0Jhc4Qr3QsMdJ-4" value="VPC" style="points=[[0,0],[0.25,0],[0.5,0],[0.75,0],[1,0],[1,0.25],[1,0.5],[1,0.75],[1,1],[0.75,1],[0.5,1],[0.25,1],[0,1],[0,0.75],[0,0.5],[0,0.25]];outlineConnect=0;gradientColor=none;html=1;whiteSpace=wrap;fontSize=12;fontStyle=0;container=1;pointerEvents=0;collapsible=0;recursiveResize=0;shape=mxgraph.aws4.group;grIcon=mxgraph.aws4.group_vpc;strokeColor=#248814;fillColor=none;verticalAlign=top;align=left;spacingLeft=30;fontColor=#AAB7B8;dashed=0;" vertex="1" parent="1">
          <mxGeometry x="350" y="80" width="420" height="530" as="geometry" />
        </mxCell>
        <mxCell id="3eNUb-Y0Jhc4Qr3QsMdJ-8" value="NACL&#xa;" style="fillColor=none;strokeColor=#5A6C86;dashed=1;verticalAlign=top;fontStyle=0;fontColor=#5A6C86;fontSize=16;" vertex="1" parent="3eNUb-Y0Jhc4Qr3QsMdJ-4">
          <mxGeometry x="90" y="80" width="260" height="380" as="geometry" />
        </mxCell>
        <mxCell id="3eNUb-Y0Jhc4Qr3QsMdJ-13" value="Web Server" style="points=[[0,0],[0.25,0],[0.5,0],[0.75,0],[1,0],[1,0.25],[1,0.5],[1,0.75],[1,1],[0.75,1],[0.5,1],[0.25,1],[0,1],[0,0.75],[0,0.5],[0,0.25]];outlineConnect=0;gradientColor=none;html=1;whiteSpace=wrap;fontSize=12;fontStyle=0;container=1;pointerEvents=0;collapsible=0;recursiveResize=0;shape=mxgraph.aws4.group;grIcon=mxgraph.aws4.group_security_group;grStroke=0;strokeColor=#147EBA;fillColor=#E6F2F8;verticalAlign=top;align=left;spacingLeft=30;fontColor=#147EBA;dashed=0;" vertex="1" parent="3eNUb-Y0Jhc4Qr3QsMdJ-4">
          <mxGeometry x="100" y="130" width="230" height="140" as="geometry" />
        </mxCell>
        <mxCell id="3eNUb-Y0Jhc4Qr3QsMdJ-14" value="Database Server" style="points=[[0,0],[0.25,0],[0.5,0],[0.75,0],[1,0],[1,0.25],[1,0.5],[1,0.75],[1,1],[0.75,1],[0.5,1],[0.25,1],[0,1],[0,0.75],[0,0.5],[0,0.25]];outlineConnect=0;gradientColor=none;html=1;whiteSpace=wrap;fontSize=12;fontStyle=0;container=1;pointerEvents=0;collapsible=0;recursiveResize=0;shape=mxgraph.aws4.group;grIcon=mxgraph.aws4.group_security_group;grStroke=0;strokeColor=#147EBA;fillColor=#E6F2F8;verticalAlign=top;align=left;spacingLeft=30;fontColor=#147EBA;dashed=0;" vertex="1" parent="3eNUb-Y0Jhc4Qr3QsMdJ-4">
          <mxGeometry x="100" y="320" width="230" height="130" as="geometry" />
        </mxCell>
        <mxCell id="3eNUb-Y0Jhc4Qr3QsMdJ-7" value="Security group" style="fillColor=none;strokeColor=#DD3522;verticalAlign=top;fontStyle=0;fontColor=#DD3522;" vertex="1" parent="3eNUb-Y0Jhc4Qr3QsMdJ-4">
          <mxGeometry x="190" y="155" width="100" height="90" as="geometry" />
        </mxCell>
        <mxCell id="3eNUb-Y0Jhc4Qr3QsMdJ-15" value="Security group" style="fillColor=none;strokeColor=#DD3522;verticalAlign=top;fontStyle=0;fontColor=#DD3522;" vertex="1" parent="3eNUb-Y0Jhc4Qr3QsMdJ-4">
          <mxGeometry x="200" y="350" width="100" height="90" as="geometry" />
        </mxCell>
        <mxCell id="3eNUb-Y0Jhc4Qr3QsMdJ-12" value="" style="sketch=0;points=[[0,0,0],[0.25,0,0],[0.5,0,0],[0.75,0,0],[1,0,0],[0,1,0],[0.25,1,0],[0.5,1,0],[0.75,1,0],[1,1,0],[0,0.25,0],[0,0.5,0],[0,0.75,0],[1,0.25,0],[1,0.5,0],[1,0.75,0]];outlineConnect=0;fontColor=#232F3E;gradientColor=#F78E04;gradientDirection=north;fillColor=#D05C17;strokeColor=#ffffff;dashed=0;verticalLabelPosition=bottom;verticalAlign=top;align=center;html=1;fontSize=12;fontStyle=0;aspect=fixed;shape=mxgraph.aws4.resourceIcon;resIcon=mxgraph.aws4.ec2;" vertex="1" parent="3eNUb-Y0Jhc4Qr3QsMdJ-4">
          <mxGeometry x="220" y="190" width="48" height="48" as="geometry" />
        </mxCell>
        <mxCell id="3eNUb-Y0Jhc4Qr3QsMdJ-16" value="" style="sketch=0;points=[[0,0,0],[0.25,0,0],[0.5,0,0],[0.75,0,0],[1,0,0],[0,1,0],[0.25,1,0],[0.5,1,0],[0.75,1,0],[1,1,0],[0,0.25,0],[0,0.5,0],[0,0.75,0],[1,0.25,0],[1,0.5,0],[1,0.75,0]];outlineConnect=0;fontColor=#232F3E;gradientColor=#4D72F3;gradientDirection=north;fillColor=#3334B9;strokeColor=#ffffff;dashed=0;verticalLabelPosition=bottom;verticalAlign=top;align=center;html=1;fontSize=12;fontStyle=0;aspect=fixed;shape=mxgraph.aws4.resourceIcon;resIcon=mxgraph.aws4.database;" vertex="1" parent="3eNUb-Y0Jhc4Qr3QsMdJ-4">
          <mxGeometry x="223.5" y="380" width="53" height="53" as="geometry" />
        </mxCell>
        <mxCell id="3eNUb-Y0Jhc4Qr3QsMdJ-47" value="Region" style="fillColor=none;strokeColor=#5A6C86;dashed=1;verticalAlign=top;fontStyle=0;fontColor=#5A6C86;labelBackgroundColor=#3399FF;fontSize=16;" vertex="1" parent="3eNUb-Y0Jhc4Qr3QsMdJ-4">
          <mxGeometry x="30" y="30" width="370" height="490" as="geometry" />
        </mxCell>
        <mxCell id="3eNUb-Y0Jhc4Qr3QsMdJ-48" value="Availability zone" style="fillColor=none;strokeColor=#5A6C86;dashed=1;verticalAlign=top;fontStyle=0;fontColor=#5A6C86;labelBackgroundColor=#3399FF;fontSize=16;" vertex="1" parent="3eNUb-Y0Jhc4Qr3QsMdJ-4">
          <mxGeometry x="70" y="60" width="310" height="430" as="geometry" />
        </mxCell>
        <mxCell id="3eNUb-Y0Jhc4Qr3QsMdJ-17" value="Security group of Web Server" style="whiteSpace=wrap;html=1;verticalAlign=top;fillColor=none;strokeColor=#DD3522;fontColor=#DD3522;fontStyle=0;" vertex="1" parent="1">
          <mxGeometry x="810" y="260" width="120" height="40" as="geometry" />
        </mxCell>
        <mxCell id="3eNUb-Y0Jhc4Qr3QsMdJ-18" value="" style="edgeStyle=orthogonalEdgeStyle;rounded=0;orthogonalLoop=1;jettySize=auto;html=1;fontSize=16;" edge="1" parent="1" source="3eNUb-Y0Jhc4Qr3QsMdJ-7" target="3eNUb-Y0Jhc4Qr3QsMdJ-17">
          <mxGeometry relative="1" as="geometry" />
        </mxCell>
        <mxCell id="3eNUb-Y0Jhc4Qr3QsMdJ-19" value="Security Group of Database server" style="whiteSpace=wrap;html=1;verticalAlign=top;fillColor=none;strokeColor=#DD3522;fontColor=#DD3522;fontStyle=0;" vertex="1" parent="1">
          <mxGeometry x="540" y="650" width="120" height="35" as="geometry" />
        </mxCell>
        <mxCell id="3eNUb-Y0Jhc4Qr3QsMdJ-20" value="" style="edgeStyle=orthogonalEdgeStyle;rounded=0;orthogonalLoop=1;jettySize=auto;html=1;fontSize=16;" edge="1" parent="1" source="3eNUb-Y0Jhc4Qr3QsMdJ-15" target="3eNUb-Y0Jhc4Qr3QsMdJ-19">
          <mxGeometry relative="1" as="geometry" />
        </mxCell>
        <mxCell id="3eNUb-Y0Jhc4Qr3QsMdJ-21" value="Database" style="whiteSpace=wrap;html=1;verticalAlign=top;fillColor=#3334B9;strokeColor=#ffffff;fontColor=#FFFFFF;sketch=0;gradientColor=#4D72F3;gradientDirection=north;dashed=0;fontStyle=0;" vertex="1" parent="1">
          <mxGeometry x="815" y="469.75" width="120" height="33.5" as="geometry" />
        </mxCell>
        <mxCell id="3eNUb-Y0Jhc4Qr3QsMdJ-22" value="" style="edgeStyle=orthogonalEdgeStyle;rounded=0;orthogonalLoop=1;jettySize=auto;html=1;fontSize=16;" edge="1" parent="1" source="3eNUb-Y0Jhc4Qr3QsMdJ-16" target="3eNUb-Y0Jhc4Qr3QsMdJ-21">
          <mxGeometry relative="1" as="geometry" />
        </mxCell>
        <mxCell id="3eNUb-Y0Jhc4Qr3QsMdJ-23" value="EC2 Instance" style="whiteSpace=wrap;html=1;verticalAlign=top;fillColor=#D05C17;strokeColor=#ffffff;fontColor=#FFFFFF;sketch=0;gradientColor=#F78E04;gradientDirection=north;dashed=0;fontStyle=0;" vertex="1" parent="1">
          <mxGeometry x="810" y="370" width="130" height="30" as="geometry" />
        </mxCell>
        <mxCell id="3eNUb-Y0Jhc4Qr3QsMdJ-24" value="" style="edgeStyle=orthogonalEdgeStyle;rounded=0;orthogonalLoop=1;jettySize=auto;html=1;fontSize=16;fontColor=#FFFFFF;" edge="1" parent="1" target="3eNUb-Y0Jhc4Qr3QsMdJ-23">
          <mxGeometry relative="1" as="geometry">
            <mxPoint x="610" y="330" as="sourcePoint" />
            <Array as="points">
              <mxPoint x="610" y="350" />
              <mxPoint x="860" y="350" />
            </Array>
          </mxGeometry>
        </mxCell>
        <mxCell id="3eNUb-Y0Jhc4Qr3QsMdJ-26" value="Web Applictation&amp;nbsp;&lt;br&gt;Firewall (WAF)" style="ellipse;whiteSpace=wrap;html=1;verticalAlign=top;fillColor=#C7131F;strokeColor=#ffffff;fontColor=#FFFFFF;sketch=0;gradientColor=#F54749;gradientDirection=north;dashed=0;fontStyle=0;" vertex="1" parent="1">
          <mxGeometry x="810" y="8.5" width="120" height="41" as="geometry" />
        </mxCell>
        <mxCell id="3eNUb-Y0Jhc4Qr3QsMdJ-27" value="" style="edgeStyle=orthogonalEdgeStyle;rounded=0;orthogonalLoop=1;jettySize=auto;html=1;fontSize=16;fontColor=#FFFFFF;" edge="1" parent="1" source="3eNUb-Y0Jhc4Qr3QsMdJ-25" target="3eNUb-Y0Jhc4Qr3QsMdJ-26">
          <mxGeometry relative="1" as="geometry" />
        </mxCell>
        <mxCell id="3eNUb-Y0Jhc4Qr3QsMdJ-28" value="" style="endArrow=classic;html=1;rounded=0;fontSize=16;fontColor=#FFFFFF;exitX=0.5;exitY=1;exitDx=0;exitDy=0;exitPerimeter=0;" edge="1" parent="1" source="3eNUb-Y0Jhc4Qr3QsMdJ-25">
          <mxGeometry width="50" height="50" relative="1" as="geometry">
            <mxPoint x="460" y="70" as="sourcePoint" />
            <mxPoint x="521" y="80" as="targetPoint" />
          </mxGeometry>
        </mxCell>
        <mxCell id="3eNUb-Y0Jhc4Qr3QsMdJ-30" value="S3 Bucket for BACKUPS" style="whiteSpace=wrap;html=1;verticalAlign=top;fillColor=#3F8624;strokeColor=none;fontColor=#FFFFFF;sketch=0;gradientColor=none;dashed=0;fontStyle=0;" vertex="1" parent="1">
          <mxGeometry x="-70" y="138.5" width="120" height="41" as="geometry" />
        </mxCell>
        <mxCell id="3eNUb-Y0Jhc4Qr3QsMdJ-31" value="" style="edgeStyle=orthogonalEdgeStyle;rounded=0;orthogonalLoop=1;jettySize=auto;html=1;fontSize=16;fontColor=#FFFFFF;" edge="1" parent="1" source="3eNUb-Y0Jhc4Qr3QsMdJ-29" target="3eNUb-Y0Jhc4Qr3QsMdJ-30">
          <mxGeometry relative="1" as="geometry" />
        </mxCell>
        <mxCell id="3eNUb-Y0Jhc4Qr3QsMdJ-32" value="" style="endArrow=classic;html=1;rounded=0;fontSize=16;fontColor=#FFFFFF;entryX=0.077;entryY=0.737;entryDx=0;entryDy=0;entryPerimeter=0;" edge="1" parent="1" source="3eNUb-Y0Jhc4Qr3QsMdJ-29" target="3eNUb-Y0Jhc4Qr3QsMdJ-8">
          <mxGeometry width="50" height="50" relative="1" as="geometry">
            <mxPoint x="410" y="360" as="sourcePoint" />
            <mxPoint x="460" y="310" as="targetPoint" />
            <Array as="points">
              <mxPoint x="230" y="440" />
            </Array>
          </mxGeometry>
        </mxCell>
        <mxCell id="3eNUb-Y0Jhc4Qr3QsMdJ-39" value="" style="edgeStyle=orthogonalEdgeStyle;rounded=0;orthogonalLoop=1;jettySize=auto;html=1;fontSize=16;fontColor=#FFFFFF;" edge="1" parent="1" source="3eNUb-Y0Jhc4Qr3QsMdJ-36" target="3eNUb-Y0Jhc4Qr3QsMdJ-38">
          <mxGeometry relative="1" as="geometry" />
        </mxCell>
        <mxCell id="3eNUb-Y0Jhc4Qr3QsMdJ-36" value="" style="sketch=0;outlineConnect=0;fontColor=#232F3E;gradientColor=none;fillColor=#4D27AA;strokeColor=none;dashed=0;verticalLabelPosition=bottom;verticalAlign=top;align=center;html=1;fontSize=12;fontStyle=0;aspect=fixed;pointerEvents=1;shape=mxgraph.aws4.route_53_resolver_dns_firewall;" vertex="1" parent="1">
          <mxGeometry x="492" y="-120" width="58" height="58" as="geometry" />
        </mxCell>
        <mxCell id="3eNUb-Y0Jhc4Qr3QsMdJ-37" value="" style="endArrow=classic;html=1;rounded=0;fontSize=16;fontColor=#FFFFFF;" edge="1" parent="1" source="3eNUb-Y0Jhc4Qr3QsMdJ-36" target="3eNUb-Y0Jhc4Qr3QsMdJ-25">
          <mxGeometry width="50" height="50" relative="1" as="geometry">
            <mxPoint x="480" y="-50" as="sourcePoint" />
            <mxPoint x="460" y="20" as="targetPoint" />
          </mxGeometry>
        </mxCell>
        <mxCell id="3eNUb-Y0Jhc4Qr3QsMdJ-38" value="Route 53 Resolver DNS Firewall" style="ellipse;whiteSpace=wrap;html=1;verticalAlign=top;fillColor=#4D27AA;strokeColor=none;fontColor=#FFFFFF;sketch=0;gradientColor=none;dashed=0;fontStyle=0;" vertex="1" parent="1">
          <mxGeometry x="810" y="-116.5" width="120" height="51" as="geometry" />
        </mxCell>
        <mxCell id="3eNUb-Y0Jhc4Qr3QsMdJ-40" value="I&lt;font color=&quot;#000000&quot;&gt;Internet&lt;/font&gt;" style="ellipse;shape=cloud;whiteSpace=wrap;html=1;fontSize=16;fontColor=#FFFFFF;" vertex="1" parent="1">
          <mxGeometry x="310" y="-180" width="120" height="80" as="geometry" />
        </mxCell>
        <mxCell id="3eNUb-Y0Jhc4Qr3QsMdJ-42" value="" style="endArrow=classic;html=1;rounded=0;fontSize=16;fontColor=#000000;" edge="1" parent="1" target="3eNUb-Y0Jhc4Qr3QsMdJ-36">
          <mxGeometry width="50" height="50" relative="1" as="geometry">
            <mxPoint x="410" y="-110" as="sourcePoint" />
            <mxPoint x="460" y="-200" as="targetPoint" />
            <Array as="points">
              <mxPoint x="410" y="-90" />
            </Array>
          </mxGeometry>
        </mxCell>
        <mxCell id="3eNUb-Y0Jhc4Qr3QsMdJ-45" value="" style="edgeStyle=orthogonalEdgeStyle;rounded=0;orthogonalLoop=1;jettySize=auto;html=1;fontSize=16;fontColor=#000000;" edge="1" parent="1" source="3eNUb-Y0Jhc4Qr3QsMdJ-43" target="3eNUb-Y0Jhc4Qr3QsMdJ-44">
          <mxGeometry relative="1" as="geometry" />
        </mxCell>
        <mxCell id="3eNUb-Y0Jhc4Qr3QsMdJ-43" value="" style="shape=actor;whiteSpace=wrap;html=1;labelBackgroundColor=#3399FF;fontSize=16;fontColor=#000000;" vertex="1" parent="1">
          <mxGeometry x="-10" y="-120" width="50" height="63.5" as="geometry" />
        </mxCell>
        <mxCell id="3eNUb-Y0Jhc4Qr3QsMdJ-44" value="IAM USER&amp;nbsp; (Workforce)" style="whiteSpace=wrap;html=1;fontSize=16;fontColor=#000000;labelBackgroundColor=#3399FF;" vertex="1" parent="1">
          <mxGeometry x="-45" y="-20" width="120" height="50" as="geometry" />
        </mxCell>
        <mxCell id="3eNUb-Y0Jhc4Qr3QsMdJ-46" value="" style="endArrow=classic;html=1;rounded=0;fontSize=16;fontColor=#000000;" edge="1" parent="1" source="3eNUb-Y0Jhc4Qr3QsMdJ-43">
          <mxGeometry width="50" height="50" relative="1" as="geometry">
            <mxPoint x="350" y="70" as="sourcePoint" />
            <mxPoint x="150" y="-20" as="targetPoint" />
            <Array as="points">
              <mxPoint x="150" y="-88" />
            </Array>
          </mxGeometry>
        </mxCell>
      </root>
    </mxGraphModel>
  </diagram>
</mxfile>
